<mxfile host="app.diagrams.net" agent="Mozilla/5.0 (Windows NT 10.0; Win64; x64) AppleWebKit/537.36 (KHTML, like Gecko) Chrome/131.0.0.0 Safari/537.36" version="25.0.3">
  <diagram id="C5RBs43oDa-KdzZeNtuy" name="Page-1">
    <mxGraphModel dx="1050" dy="522" grid="1" gridSize="10" guides="1" tooltips="1" connect="1" arrows="1" fold="1" page="1" pageScale="1" pageWidth="827" pageHeight="1169" math="0" shadow="0">
      <root>
        <mxCell id="WIyWlLk6GJQsqaUBKTNV-0" />
        <mxCell id="WIyWlLk6GJQsqaUBKTNV-1" parent="WIyWlLk6GJQsqaUBKTNV-0" />
        <mxCell id="dTnHhIX48M8Qr0kzJmnp-2" style="edgeStyle=orthogonalEdgeStyle;rounded=0;orthogonalLoop=1;jettySize=auto;html=1;entryX=0.5;entryY=0;entryDx=0;entryDy=0;" edge="1" parent="WIyWlLk6GJQsqaUBKTNV-1" source="dTnHhIX48M8Qr0kzJmnp-0" target="dTnHhIX48M8Qr0kzJmnp-1">
          <mxGeometry relative="1" as="geometry" />
        </mxCell>
        <mxCell id="dTnHhIX48M8Qr0kzJmnp-0" value="Start" style="ellipse;whiteSpace=wrap;html=1;" vertex="1" parent="WIyWlLk6GJQsqaUBKTNV-1">
          <mxGeometry x="310" y="10" width="120" height="80" as="geometry" />
        </mxCell>
        <mxCell id="dTnHhIX48M8Qr0kzJmnp-5" style="edgeStyle=orthogonalEdgeStyle;rounded=0;orthogonalLoop=1;jettySize=auto;html=1;" edge="1" parent="WIyWlLk6GJQsqaUBKTNV-1" source="dTnHhIX48M8Qr0kzJmnp-1" target="dTnHhIX48M8Qr0kzJmnp-4">
          <mxGeometry relative="1" as="geometry" />
        </mxCell>
        <mxCell id="dTnHhIX48M8Qr0kzJmnp-1" value="Nhap a,b" style="shape=parallelogram;perimeter=parallelogramPerimeter;whiteSpace=wrap;html=1;fixedSize=1;" vertex="1" parent="WIyWlLk6GJQsqaUBKTNV-1">
          <mxGeometry x="310" y="150" width="120" height="60" as="geometry" />
        </mxCell>
        <mxCell id="dTnHhIX48M8Qr0kzJmnp-15" style="edgeStyle=orthogonalEdgeStyle;rounded=0;orthogonalLoop=1;jettySize=auto;html=1;" edge="1" parent="WIyWlLk6GJQsqaUBKTNV-1" source="dTnHhIX48M8Qr0kzJmnp-3" target="dTnHhIX48M8Qr0kzJmnp-13">
          <mxGeometry relative="1" as="geometry" />
        </mxCell>
        <mxCell id="dTnHhIX48M8Qr0kzJmnp-3" value="b=0" style="rhombus;whiteSpace=wrap;html=1;" vertex="1" parent="WIyWlLk6GJQsqaUBKTNV-1">
          <mxGeometry x="360" y="250" width="80" height="80" as="geometry" />
        </mxCell>
        <mxCell id="dTnHhIX48M8Qr0kzJmnp-8" style="edgeStyle=orthogonalEdgeStyle;rounded=0;orthogonalLoop=1;jettySize=auto;html=1;entryX=0;entryY=0.5;entryDx=0;entryDy=0;" edge="1" parent="WIyWlLk6GJQsqaUBKTNV-1" source="dTnHhIX48M8Qr0kzJmnp-4" target="dTnHhIX48M8Qr0kzJmnp-3">
          <mxGeometry relative="1" as="geometry" />
        </mxCell>
        <mxCell id="dTnHhIX48M8Qr0kzJmnp-4" value="a=0" style="rhombus;whiteSpace=wrap;html=1;" vertex="1" parent="WIyWlLk6GJQsqaUBKTNV-1">
          <mxGeometry x="170" y="250" width="80" height="80" as="geometry" />
        </mxCell>
        <mxCell id="dTnHhIX48M8Qr0kzJmnp-6" value="phuong trinh vo nghiem" style="strokeWidth=2;html=1;shape=mxgraph.flowchart.display;whiteSpace=wrap;" vertex="1" parent="WIyWlLk6GJQsqaUBKTNV-1">
          <mxGeometry x="160" y="410" width="100" height="60" as="geometry" />
        </mxCell>
        <mxCell id="dTnHhIX48M8Qr0kzJmnp-7" style="edgeStyle=orthogonalEdgeStyle;rounded=0;orthogonalLoop=1;jettySize=auto;html=1;entryX=0.5;entryY=0;entryDx=0;entryDy=0;entryPerimeter=0;" edge="1" parent="WIyWlLk6GJQsqaUBKTNV-1" source="dTnHhIX48M8Qr0kzJmnp-4" target="dTnHhIX48M8Qr0kzJmnp-6">
          <mxGeometry relative="1" as="geometry" />
        </mxCell>
        <mxCell id="dTnHhIX48M8Qr0kzJmnp-22" style="edgeStyle=orthogonalEdgeStyle;rounded=0;orthogonalLoop=1;jettySize=auto;html=1;" edge="1" parent="WIyWlLk6GJQsqaUBKTNV-1" source="dTnHhIX48M8Qr0kzJmnp-9" target="dTnHhIX48M8Qr0kzJmnp-20">
          <mxGeometry relative="1" as="geometry">
            <Array as="points">
              <mxPoint x="490" y="400" />
              <mxPoint x="490" y="400" />
            </Array>
          </mxGeometry>
        </mxCell>
        <mxCell id="dTnHhIX48M8Qr0kzJmnp-9" value="b!=0" style="strokeWidth=2;html=1;shape=mxgraph.flowchart.decision;whiteSpace=wrap;" vertex="1" parent="WIyWlLk6GJQsqaUBKTNV-1">
          <mxGeometry x="360" y="360" width="80" height="80" as="geometry" />
        </mxCell>
        <mxCell id="dTnHhIX48M8Qr0kzJmnp-10" style="edgeStyle=orthogonalEdgeStyle;rounded=0;orthogonalLoop=1;jettySize=auto;html=1;entryX=0;entryY=0.5;entryDx=0;entryDy=0;entryPerimeter=0;" edge="1" parent="WIyWlLk6GJQsqaUBKTNV-1" source="dTnHhIX48M8Qr0kzJmnp-4" target="dTnHhIX48M8Qr0kzJmnp-9">
          <mxGeometry relative="1" as="geometry" />
        </mxCell>
        <mxCell id="dTnHhIX48M8Qr0kzJmnp-11" value="đúng" style="text;html=1;align=center;verticalAlign=middle;whiteSpace=wrap;rounded=0;" vertex="1" parent="WIyWlLk6GJQsqaUBKTNV-1">
          <mxGeometry x="160" y="350" width="60" height="30" as="geometry" />
        </mxCell>
        <mxCell id="dTnHhIX48M8Qr0kzJmnp-12" value="sai" style="text;html=1;align=center;verticalAlign=middle;whiteSpace=wrap;rounded=0;" vertex="1" parent="WIyWlLk6GJQsqaUBKTNV-1">
          <mxGeometry x="230" y="270" width="60" height="30" as="geometry" />
        </mxCell>
        <mxCell id="dTnHhIX48M8Qr0kzJmnp-13" value="phuong trinh vo so nghiem" style="strokeWidth=2;html=1;shape=mxgraph.flowchart.display;whiteSpace=wrap;" vertex="1" parent="WIyWlLk6GJQsqaUBKTNV-1">
          <mxGeometry x="510" y="260" width="100" height="60" as="geometry" />
        </mxCell>
        <mxCell id="dTnHhIX48M8Qr0kzJmnp-14" value="phuong trinh co nghiem x=-b/a" style="strokeWidth=2;html=1;shape=mxgraph.flowchart.display;whiteSpace=wrap;" vertex="1" parent="WIyWlLk6GJQsqaUBKTNV-1">
          <mxGeometry x="510" y="460" width="100" height="60" as="geometry" />
        </mxCell>
        <mxCell id="dTnHhIX48M8Qr0kzJmnp-17" value="đúng" style="text;html=1;align=center;verticalAlign=middle;whiteSpace=wrap;rounded=0;" vertex="1" parent="WIyWlLk6GJQsqaUBKTNV-1">
          <mxGeometry x="440" y="260" width="60" height="30" as="geometry" />
        </mxCell>
        <mxCell id="dTnHhIX48M8Qr0kzJmnp-18" value="đúng" style="text;html=1;align=center;verticalAlign=middle;whiteSpace=wrap;rounded=0;" vertex="1" parent="WIyWlLk6GJQsqaUBKTNV-1">
          <mxGeometry x="440" y="340" width="60" height="30" as="geometry" />
        </mxCell>
        <mxCell id="dTnHhIX48M8Qr0kzJmnp-20" value="x = -b/a" style="rounded=1;whiteSpace=wrap;html=1;absoluteArcSize=1;arcSize=14;strokeWidth=2;" vertex="1" parent="WIyWlLk6GJQsqaUBKTNV-1">
          <mxGeometry x="510" y="370" width="100" height="50" as="geometry" />
        </mxCell>
        <mxCell id="dTnHhIX48M8Qr0kzJmnp-24" style="edgeStyle=orthogonalEdgeStyle;rounded=0;orthogonalLoop=1;jettySize=auto;html=1;entryX=0;entryY=0.5;entryDx=0;entryDy=0;entryPerimeter=0;" edge="1" parent="WIyWlLk6GJQsqaUBKTNV-1" source="dTnHhIX48M8Qr0kzJmnp-20" target="dTnHhIX48M8Qr0kzJmnp-14">
          <mxGeometry relative="1" as="geometry" />
        </mxCell>
        <mxCell id="dTnHhIX48M8Qr0kzJmnp-26" value="End" style="strokeWidth=2;html=1;shape=mxgraph.flowchart.start_1;whiteSpace=wrap;" vertex="1" parent="WIyWlLk6GJQsqaUBKTNV-1">
          <mxGeometry x="320" y="590" width="100" height="60" as="geometry" />
        </mxCell>
        <mxCell id="dTnHhIX48M8Qr0kzJmnp-27" style="edgeStyle=orthogonalEdgeStyle;rounded=0;orthogonalLoop=1;jettySize=auto;html=1;entryX=0.012;entryY=0.627;entryDx=0;entryDy=0;entryPerimeter=0;" edge="1" parent="WIyWlLk6GJQsqaUBKTNV-1" source="dTnHhIX48M8Qr0kzJmnp-6" target="dTnHhIX48M8Qr0kzJmnp-26">
          <mxGeometry relative="1" as="geometry">
            <Array as="points">
              <mxPoint x="210" y="628" />
            </Array>
          </mxGeometry>
        </mxCell>
        <mxCell id="dTnHhIX48M8Qr0kzJmnp-28" style="edgeStyle=orthogonalEdgeStyle;rounded=0;orthogonalLoop=1;jettySize=auto;html=1;entryX=1;entryY=0.5;entryDx=0;entryDy=0;entryPerimeter=0;" edge="1" parent="WIyWlLk6GJQsqaUBKTNV-1" source="dTnHhIX48M8Qr0kzJmnp-14" target="dTnHhIX48M8Qr0kzJmnp-26">
          <mxGeometry relative="1" as="geometry">
            <Array as="points">
              <mxPoint x="560" y="620" />
            </Array>
          </mxGeometry>
        </mxCell>
        <mxCell id="dTnHhIX48M8Qr0kzJmnp-29" style="edgeStyle=orthogonalEdgeStyle;rounded=0;orthogonalLoop=1;jettySize=auto;html=1;entryX=1;entryY=0.5;entryDx=0;entryDy=0;entryPerimeter=0;" edge="1" parent="WIyWlLk6GJQsqaUBKTNV-1" source="dTnHhIX48M8Qr0kzJmnp-13" target="dTnHhIX48M8Qr0kzJmnp-26">
          <mxGeometry relative="1" as="geometry">
            <Array as="points">
              <mxPoint x="650" y="290" />
              <mxPoint x="650" y="620" />
            </Array>
          </mxGeometry>
        </mxCell>
      </root>
    </mxGraphModel>
  </diagram>
</mxfile>
